<?xml version="1.0" encoding="utf-8"?>
<!-- Generator: Adobe Illustrator 16.0.0, SVG Export Plug-In . SVG Version: 6.00 Build 0)  -->
<!DOCTYPE svg PUBLIC "-//W3C//DTD SVG 1.1//EN" "http://www.w3.org/Graphics/SVG/1.1/DTD/svg11.dtd">
<svg version="1.1" id="Layer_1" xmlns="http://www.w3.org/2000/svg" xmlns:xlink="http://www.w3.org/1999/xlink" x="0px" y="0px"
	 width="202.88px" height="60px" viewBox="-2.88 0 202.88 60" enable-background="new -2.88 0 202.88 60" xml:space="preserve">
<g id="Layer_1_1_">
	<path id="_x30_05" fill="#010101" d="M14.202,31.786c0.326-0.011,0.625-0.024,0.924-0.024c2.022-0.003,4.042-0.002,6.064-0.002
		c0.217,0,0.242,0.021,0.295,0.243c0.121,0.499,0.142,1.011,0.14,1.522c0,0.523-0.014,1.051-0.146,1.562
		c-0.058,0.227-0.083,0.243-0.313,0.243c-2.165,0-4.331,0-6.496-0.003c-0.124,0-0.248-0.021-0.388-0.033c0,0.045,0,0.1,0,0.152
		c0.04,1.923,0.1,3.847,0.109,5.77c0.004,0.791-0.075,1.59-0.172,2.375c-0.045,0.359-0.237,0.701-0.342,1.059
		c-0.144,0.484-0.463,0.875-0.705,1.307c-0.349,0.622-0.854,1.125-1.375,1.582c-0.646,0.564-1.363,1.044-2.148,1.434
		c-0.835,0.412-1.717,0.656-2.606,0.879C6.607,49.963,6.138,49.938,5.688,50c-0.707,0.102-1.398-0.044-2.095-0.102
		c-0.239-0.019-0.473-0.084-0.708-0.14c-0.149-0.032-0.292-0.099-0.441-0.13c-0.844-0.18-1.563-0.632-2.291-1.061
		c-0.252-0.146-0.441-0.396-0.679-0.574c-0.582-0.439-0.937-1.062-1.329-1.65c-0.174-0.263-0.258-0.586-0.382-0.882
		c-0.034-0.081-0.058-0.168-0.096-0.247c-0.37-0.752-0.491-1.562-0.545-2.385c-0.011-0.18,0.031-0.36,0.053-0.539
		c0.034-0.275,0.07-0.555,0.112-0.83c0.016-0.102,0.045-0.195,0.076-0.295c0.268-0.838,0.638-1.625,1.174-2.324
		c0.245-0.318,0.534-0.604,0.798-0.908c0.23-0.266,0.493-0.492,0.78-0.689c0.553-0.383,1.024-0.857,1.512-1.312
		c0.5-0.471,0.908-1.013,1.293-1.565c0.318-0.457,0.552-0.972,0.547-1.554c0-0.078-0.017-0.154-0.04-0.229
		c-0.189-0.62-0.581-1.127-0.949-1.646c-0.085-0.119-0.2-0.221-0.311-0.316c-0.262-0.234-0.475-0.503-0.649-0.81
		c-0.133-0.233-0.239-0.468-0.292-0.731c-0.063-0.319-0.125-0.641-0.221-0.95c-0.129-0.414-0.076-0.832,0.016-1.226
		c0.082-0.348,0.27-0.679,0.453-0.994c0.278-0.48,0.688-0.853,1.126-1.184c0.31-0.234,0.645-0.443,0.992-0.618
		c0.897-0.454,1.849-0.747,2.845-0.892c0.767-0.111,1.533-0.138,2.306-0.088c0.885,0.057,1.74,0.245,2.562,0.561
		c0.61,0.234,1.175,0.564,1.667,0.997c0.426,0.376,0.77,0.83,0.956,1.368c0.109,0.315,0.157,0.663,0.167,0.999
		c0.048,1.542,0.072,3.083,0.106,4.627C14.204,31.723,14.202,31.768,14.202,31.786z M3.135,42.38
		c0.038,0.099,0.063,0.229,0.132,0.331c0.417,0.598,1.016,0.918,1.716,1.036c0.721,0.12,1.424,0.024,2.091-0.289
		c0.721-0.34,1.274-0.844,1.557-1.603c0.071-0.192,0.148-0.396,0.043-0.606c-0.311-0.622-0.818-1.007-1.47-1.212
		c-0.469-0.146-0.949-0.168-1.433-0.107C5.298,39.99,4.86,40.168,4.46,40.411c-0.368,0.226-0.686,0.517-0.928,0.888
		C3.321,41.622,3.236,41.98,3.135,42.38z M7.228,28.329c0.725-0.013,1.256-0.123,1.744-0.402c0.264-0.15,0.497-0.339,0.652-0.611
		c0.036-0.064,0.042-0.109-0.007-0.173C9.425,26.89,9.17,26.724,8.88,26.614c-0.764-0.288-1.531-0.26-2.287,0.026
		c-0.414,0.156-0.773,0.396-1.01,0.792c-0.061,0.103-0.062,0.188,0.022,0.258c0.134,0.113,0.266,0.239,0.421,0.317
		C6.456,28.221,6.913,28.34,7.228,28.329z"/>
	<path fill="#010101" d="M21.188,7.5v24.516V35.5v19.699c0,2.6,2.1,4.801,4.8,4.801h169.2c2.604,0,4.799-2.201,4.799-4.801V7.5"/>
	<path fill="#FEC411" d="M51,0h29.8v7.5H51V0z"/>
	<path fill="#68A644" d="M80.8,0h29.8v7.5H80.8V0z"/>
	<path fill="#E97D9C" d="M110.6,0H140.4v7.5H110.6V0z"/>
	<path fill="#77C6D3" d="M140.4,0h29.8v7.5h-29.8V0z"/>
	<path fill="#FFFFFF" d="M60.5,22.1c-1,0-1.9,0.8-1.9,1.9v19.5c0,1,0.8,1.9,1.9,1.9c1,0,1.9-0.801,1.9-1.9V24
		C62.3,23,61.5,22.1,60.5,22.1 M51.9,22.1H35.5c-1,0-1.7,0.8-1.7,1.7c0,1,0.8,1.7,1.7,1.7H42v17.9c0,1,0.8,1.896,1.9,1.896
		c1,0,1.9-0.8,1.9-1.896V25.6H52c1,0,1.7-0.8,1.7-1.7C53.7,22.9,52.9,22.1,51.9,22.1 M115.5,22.5c-0.8-0.6-2-0.4-2.6,0.4l-6.604,9.2
		l-6.6-9.2c-0.6-0.8-1.8-1-2.6-0.4c-0.8,0.6-1,1.8-0.4,2.6l7.8,10.9v7.6c0,1,0.8,1.9,1.896,1.9c1,0,1.898-0.8,1.898-1.9V36l7.8-10.9
		C116.5,24.3,116.3,23.1,115.5,22.5 M90.1,22.1c-1,0-1.9,0.8-1.9,1.9v14.7L75.3,22.8c0-0.1-0.1-0.1-0.2-0.2L75,22.5
		c-0.3-0.3-0.7-0.4-1.2-0.4c-1,0-1.9,0.8-1.9,1.9v19.5c0,1,0.8,1.9,1.9,1.9c1,0,1.9-0.801,1.9-1.9V28.8l12.9,15.8
		c0.3,0.5,0.9,0.801,1.5,0.801c1,0,1.9-0.801,1.9-1.896V24C91.9,23,91.1,22.1,90.1,22.1 M153,21.8c-6.4,0-10.3,4.6-10.3,11.8
		c0,7.604,3.8,12.2,10.3,12.2c6.6,0,10.5-4.6,10.5-12.2C163.5,26.5,159.4,21.8,153,21.8 M153,42.3c-4.4,0-6.6-3.2-6.6-8.8
		c0-3,0.896-8.3,6.6-8.3c6.1,0,6.8,5.899,6.8,8.3C159.8,37.4,158.6,42.3,153,42.3 M180,22.1h-8c-1,0-1.9,0.8-1.9,1.9v19.6
		c0,1,0.801,1.9,1.9,1.9c1,0,1.9-0.8,1.9-1.9V36h6.1c3.6,0,6.5-3.1,6.5-6.9C186.5,25.2,183.6,22.1,180,22.1 M180,32.5h-6.1v-6.9h6.1
		c1.7,0,3,1.5,3,3.5C183,31,181.7,32.5,180,32.5 M134.5,33c0.9-1.1,1.5-2.6,1.5-4.3c0-3.7-2.7-6.6-6.2-6.6h-7.5
		c-0.5,0-1,0.2-1.3,0.6c-0.4,0.3-0.6,0.8-0.6,1.4v19.5c0,0.5,0.199,1,0.6,1.4c0.3,0.3,0.7,0.5,1.2,0.5h8.6c3.601,0,6.3-3,6.3-6.8
		C137.3,36.3,136.2,34.2,134.5,33 M132.5,28.7c0,1.8-1.2,3.1-2.7,3.1h-5.7v-6.2h5.7C131.4,25.6,132.5,26.9,132.5,28.7 M130.9,41.9
		h-6.7V35.3h6.7c1.6,0,2.896,1.4,2.896,3.3C133.8,40.5,132.6,41.9,130.9,41.9"/>
	<path fill="#0D89A0" d="M51,0H26c-2.6,0-4.8,2.2-4.8,4.8v2.7H51V0z"/>
	<path fill="#E8493F" d="M195.2,0h-25v7.5H200V4.8C200,2.2,197.9,0,195.2,0"/>
</g>
</svg>
