<?xml version="1.0" encoding="utf-8"?>
<!-- Generator: Adobe Illustrator 16.0.0, SVG Export Plug-In . SVG Version: 6.00 Build 0)  -->
<!DOCTYPE svg PUBLIC "-//W3C//DTD SVG 1.1//EN" "http://www.w3.org/Graphics/SVG/1.1/DTD/svg11.dtd">
<svg version="1.1" id="Layer_1" xmlns="http://www.w3.org/2000/svg" xmlns:xlink="http://www.w3.org/1999/xlink" x="0px" y="0px"
	 width="200px" height="60px" viewBox="0 0 200 60" enable-background="new 0 0 200 60" xml:space="preserve">
<g id="Layer_1_1_">
	<g id="keyshaft" display="none">
		<path display="inline" fill="#010101" d="M14.3,35.5h6.9v-3.484L14.3,32V35.5z"/>
	</g>
	<g id="keyhandle" display="none">
		<path display="inline" fill="#010101" d="M14.3,32v-7.771C14.3,20.328,11,17,7,17s-7.1,3.2-7.1,7.2c0,2,0.8,3.8,2.1,5.1
			c0,0,1.8,2.3,1.8,4.5C3.8,35.9,2,38.3,2,38.3c-1.3,1.199-2.1,3-2.1,5c0,4,3.2,7.199,7.2,7.199s7.2-3.199,7.2-7.199v-7.8V32z
			 M7.101,45.701c-1.3,0-2.4-1.102-2.4-2.4c0-1,0.6-1.9,1.5-2.201C6.5,41,6.8,40.9,7.101,40.9c1.3,0,2.4,1.1,2.4,2.396
			C9.5,44.701,8.4,45.701,7.101,45.701 M9.5,24.201c0,1.3-1.1,2.4-2.4,2.4c-0.3,0-0.6-0.1-0.9-0.2c-0.9-0.4-1.5-1.2-1.5-2.2
			c0-1.3,1.1-2.4,2.4-2.4C8.4,21.8,9.5,22.9,9.5,24.201z"/>
	</g>
	<path fill="#010101" d="M21.188,7.5v24.516V35.5v19.699c0,2.6,2.1,4.801,4.8,4.801h169.2c2.604,0,4.799-2.201,4.799-4.801V7.5"/>
	<path fill="#FEC411" d="M51,0h29.8v7.5H51V0z"/>
	<path fill="#68A644" d="M80.8,0h29.8v7.5H80.8V0z"/>
	<path fill="#E97D9C" d="M110.6,0H140.4v7.5H110.6V0z"/>
	<path fill="#77C6D3" d="M140.4,0h29.8v7.5h-29.8V0z"/>
	<path fill="#FFFFFF" d="M60.5,22.1c-1,0-1.9,0.8-1.9,1.9v19.5c0,1,0.8,1.9,1.9,1.9c1,0,1.9-0.801,1.9-1.9V24
		C62.3,23,61.5,22.1,60.5,22.1 M51.9,22.1H35.5c-1,0-1.7,0.8-1.7,1.7c0,1,0.8,1.7,1.7,1.7H42v17.9c0,1,0.8,1.896,1.9,1.896
		c1,0,1.9-0.8,1.9-1.896V25.6H52c1,0,1.7-0.8,1.7-1.7C53.7,22.9,52.9,22.1,51.9,22.1 M115.5,22.5c-0.8-0.6-2-0.4-2.6,0.4l-6.604,9.2
		l-6.6-9.2c-0.6-0.8-1.8-1-2.6-0.4c-0.8,0.6-1,1.8-0.4,2.6l7.8,10.9v7.6c0,1,0.8,1.9,1.896,1.9c1,0,1.899-0.8,1.899-1.9V36l7.8-10.9
		C116.5,24.3,116.3,23.1,115.5,22.5 M90.1,22.1c-1,0-1.9,0.8-1.9,1.9v14.7L75.3,22.8c0-0.1-0.1-0.1-0.2-0.2L75,22.5
		c-0.3-0.3-0.7-0.4-1.2-0.4c-1,0-1.9,0.8-1.9,1.9v19.5c0,1,0.8,1.9,1.9,1.9c1,0,1.9-0.801,1.9-1.9V28.8l12.9,15.8
		c0.3,0.5,0.9,0.801,1.5,0.801c1,0,1.9-0.801,1.9-1.896V24C91.9,23,91.1,22.1,90.1,22.1 M153,21.8c-6.4,0-10.3,4.6-10.3,11.8
		c0,7.604,3.8,12.2,10.3,12.2c6.6,0,10.5-4.6,10.5-12.2C163.5,26.5,159.4,21.8,153,21.8 M153,42.3c-4.4,0-6.6-3.2-6.6-8.8
		c0-3,0.896-8.3,6.6-8.3c6.1,0,6.8,5.899,6.8,8.3C159.8,37.4,158.6,42.3,153,42.3 M180,22.1h-8c-1,0-1.9,0.8-1.9,1.9v19.6
		c0,1,0.801,1.9,1.9,1.9c1,0,1.9-0.8,1.9-1.9V36h6.1c3.6,0,6.5-3.1,6.5-6.9C186.5,25.2,183.6,22.1,180,22.1 M180,32.5h-6.1v-6.9h6.1
		c1.7,0,3,1.5,3,3.5C183,31,181.7,32.5,180,32.5 M134.5,33c0.9-1.1,1.5-2.6,1.5-4.3c0-3.7-2.7-6.6-6.2-6.6h-7.5
		c-0.5,0-1,0.2-1.3,0.6c-0.4,0.3-0.6,0.8-0.6,1.4v19.5c0,0.5,0.199,1,0.6,1.4c0.3,0.3,0.7,0.5,1.2,0.5h8.6c3.601,0,6.3-3,6.3-6.8
		C137.3,36.3,136.2,34.2,134.5,33 M132.5,28.7c0,1.8-1.2,3.1-2.7,3.1h-5.7v-6.2h5.7C131.4,25.6,132.5,26.9,132.5,28.7 M130.9,41.9
		h-6.7V35.3h6.7c1.6,0,2.896,1.4,2.896,3.3C133.8,40.5,132.6,41.9,130.9,41.9"/>
	<path fill="#0D89A0" d="M51,0H26c-2.6,0-4.8,2.2-4.8,4.8v2.7H51V0z"/>
	<path fill="#E8493F" d="M195.2,0h-25v7.5H200V4.8C200,2.2,197.9,0,195.2,0"/>
</g>
<path id="_x30_02" fill="#010101" d="M14.442,31.785c0.079,0,0.136,0,0.194,0c2.196,0,4.393,0,6.588,0
	c0.206,0,0.238,0.006,0.28,0.202c0.064,0.305,0.12,0.615,0.14,0.926c0.042,0.638,0.034,1.277-0.071,1.913
	c-0.076,0.464-0.084,0.474-0.544,0.474c-2.127,0-4.256,0-6.384,0c-0.058,0-0.117,0-0.2,0c0,0.064,0,0.122,0,0.182
	c0,2.42,0.003,4.844-0.001,7.268c-0.001,1.011-0.1,2.003-0.438,2.97c-0.144,0.407-0.344,0.778-0.544,1.156
	c-0.396,0.736-0.938,1.354-1.562,1.915c-0.572,0.514-1.231,0.879-1.91,1.212c-0.314,0.153-0.674,0.213-1.006,0.334
	c-0.513,0.186-1.054,0.17-1.583,0.24c-0.497,0.065-0.983-0.064-1.477-0.086c-0.359-0.019-0.682-0.179-1.025-0.261
	c-0.689-0.158-1.296-0.511-1.87-0.892c-0.486-0.317-0.941-0.701-1.329-1.156c-0.458-0.539-0.862-1.108-1.157-1.753
	C0.442,46.21,0.354,45.99,0.27,45.766c-0.272-0.714-0.371-1.464-0.426-2.222c-0.031-0.445,0.073-0.875,0.094-1.312
	c0.024-0.517,0.227-0.981,0.385-1.456c0.087-0.264,0.216-0.517,0.339-0.769c0.282-0.571,0.648-1.086,1.075-1.562
	c0.229-0.257,0.406-0.556,0.606-0.835c0.527-0.734,0.909-1.55,1.223-2.392c0.254-0.686,0.368-1.402,0.278-2.142
	c-0.059-0.487-0.166-0.961-0.357-1.417c-0.058-0.134-0.121-0.265-0.167-0.402c-0.28-0.794-0.771-1.476-1.21-2.183
	c-0.165-0.264-0.405-0.477-0.595-0.726c-0.172-0.221-0.329-0.454-0.478-0.69c-0.339-0.537-0.566-1.12-0.754-1.725
	c-0.157-0.502-0.172-1.017-0.243-1.526c-0.073-0.528,0.04-1.042,0.098-1.557c0.031-0.271,0.131-0.535,0.193-0.804
	c0.168-0.728,0.556-1.355,0.929-1.988c0.104-0.177,0.267-0.319,0.393-0.485c0.327-0.425,0.726-0.768,1.136-1.109
	c0.409-0.343,0.88-0.568,1.339-0.824c0.527-0.292,1.107-0.456,1.684-0.564c0.717-0.135,1.45-0.175,2.192-0.1
	c0.7,0.073,1.371,0.25,2.012,0.503c0.516,0.204,1.015,0.476,1.467,0.817c0.583,0.441,1.115,0.932,1.54,1.526
	c0.23,0.322,0.418,0.676,0.627,1.015c0.331,0.534,0.48,1.14,0.624,1.735c0.119,0.493,0.152,1.017,0.156,1.526
	c0.017,2.5,0.011,5,0.013,7.5C14.442,31.656,14.442,31.707,14.442,31.785z M7.125,40.805c-0.521-0.008-0.986,0.165-1.393,0.466
	c-0.178,0.136-0.329,0.315-0.451,0.506c-0.221,0.336-0.363,0.71-0.375,1.119c-0.007,0.238-0.01,0.481,0.04,0.714
	c0.124,0.567,0.43,1.029,0.896,1.385c0.436,0.329,0.933,0.484,1.472,0.48c0.631-0.01,1.188-0.241,1.645-0.68
	c0.228-0.217,0.423-0.463,0.521-0.771c0.219-0.683,0.162-1.343-0.195-1.967C8.807,41.228,8.068,40.836,7.125,40.805z M7.114,26.403
	c0.611-0.004,1.074-0.14,1.482-0.425c0.674-0.473,1.04-1.129,1.057-1.956c0.005-0.237-0.039-0.491-0.125-0.713
	c-0.144-0.368-0.404-0.663-0.726-0.898c-0.459-0.338-0.974-0.493-1.543-0.467c-0.58,0.027-1.085,0.24-1.51,0.633
	c-0.402,0.373-0.645,0.832-0.732,1.378c-0.047,0.294,0,0.579,0.052,0.862c0.059,0.323,0.213,0.602,0.416,0.855
	c0.164,0.208,0.395,0.314,0.61,0.446C6.442,26.333,6.828,26.39,7.114,26.403z"/>
</svg>
