<svg xmlns="http://www.w3.org/2000/svg" width="200" height="60" viewBox="0 0 200 60"><path fill="#010101" d="M21.2 7.5v24.5h-6.9v-7.8c0-3.9-3.2-7.2-7.2-7.2s-7.1 3.2-7.1 7.2c0 2 .8 3.8 2.1 5.1 0 0 1.8 2.3 1.8 4.5 0 2.1-1.8 4.5-1.8 4.5-1.3 1.2-2.1 3-2.1 5 0 4 3.2 7.2 7.2 7.2s7.2-3.2 7.2-7.2v-7.8h6.9v19.7c0 2.6 2.1 4.8 4.8 4.8h169.2c2.6 0 4.8-2.2 4.8-4.8v-47.7h-178.9zm-14 38.2c-1.3 0-2.4-1.1-2.4-2.4 0-1 .6-1.9 1.5-2.2.3-.1.6-.2.9-.2 1.3 0 2.4 1.1 2.4 2.4 0 1.4-1.1 2.4-2.4 2.4m2.4-21.5c0 1.3-1.1 2.4-2.4 2.4-.3 0-.6-.1-.9-.2-.9-.4-1.5-1.2-1.5-2.2 0-1.3 1.1-2.4 2.4-2.4 1.3 0 2.4 1.1 2.4 2.4z"/><path fill="#FEC411" d="M51 0h29.8v7.5h-29.8z"/><path fill="#68A644" d="M80.8 0h29.8v7.5h-29.8z"/><path fill="#E97D9C" d="M110.6 0h29.8v7.5h-29.8z"/><path fill="#77C6D3" d="M140.4 0h29.8v7.5h-29.8z"/><path fill="#fff" d="M60.5 22.1c-1 0-1.9.8-1.9 1.9v19.5c0 1 .8 1.9 1.9 1.9 1 0 1.9-.8 1.9-1.9v-19.5c-.1-1-.9-1.9-1.9-1.9m-8.6 0h-16.4c-1 0-1.7.8-1.7 1.7 0 1 .8 1.7 1.7 1.7h6.5v17.9c0 1 .8 1.9 1.9 1.9 1 0 1.9-.8 1.9-1.9v-17.8h6.2c1 0 1.7-.8 1.7-1.7 0-1-.8-1.8-1.8-1.8m63.6.4c-.8-.6-2-.4-2.6.4l-6.6 9.2-6.6-9.2c-.6-.8-1.8-1-2.6-.4s-1 1.8-.4 2.6l7.8 10.9v7.6c0 1 .8 1.9 1.9 1.9 1 0 1.9-.8 1.9-1.9v-7.6l7.8-10.9c.4-.8.2-2-.6-2.6m-25.4-.4c-1 0-1.9.8-1.9 1.9v14.7l-12.9-15.9c0-.1-.1-.1-.2-.2l-.1-.1c-.3-.3-.7-.4-1.2-.4-1 0-1.9.8-1.9 1.9v19.5c0 1 .8 1.9 1.9 1.9 1 0 1.9-.8 1.9-1.9v-14.7l12.9 15.8c.3.5.9.8 1.5.8 1 0 1.9-.8 1.9-1.9v-19.5c-.1-1-.9-1.9-1.9-1.9m62.9-.3c-6.4 0-10.3 4.6-10.3 11.8 0 7.6 3.8 12.2 10.3 12.2 6.6 0 10.5-4.6 10.5-12.2 0-7.1-4.1-11.8-10.5-11.8m0 20.5c-4.4 0-6.6-3.2-6.6-8.8 0-3 .9-8.3 6.6-8.3 6.1 0 6.8 5.9 6.8 8.3 0 3.9-1.2 8.8-6.8 8.8m27-20.2h-8c-1 0-1.9.8-1.9 1.9v19.6c0 1 .8 1.9 1.9 1.9 1 0 1.9-.8 1.9-1.9v-7.6h6.1c3.6 0 6.5-3.1 6.5-6.9 0-3.9-2.9-7-6.5-7m0 10.4h-6.1v-6.9h6.1c1.7 0 3 1.5 3 3.5 0 1.9-1.3 3.4-3 3.4m-45.5.5c.9-1.1 1.5-2.6 1.5-4.3 0-3.7-2.7-6.6-6.2-6.6h-7.5c-.5 0-1 .2-1.3.6-.4.3-.6.8-.6 1.4v19.5c0 .5.2 1 .6 1.4.3.3.7.5 1.2.5h8.6c3.6 0 6.3-3 6.3-6.8.2-2.4-.9-4.5-2.6-5.7m-2-4.3c0 1.8-1.2 3.1-2.7 3.1h-5.7v-6.2h5.7c1.6 0 2.7 1.3 2.7 3.1m-1.6 13.2h-6.7v-6.6h6.7c1.6 0 2.9 1.4 2.9 3.3s-1.2 3.3-2.9 3.3"/><path fill="#0D89A0" d="M51 0h-25c-2.6 0-4.8 2.2-4.8 4.8v2.7h29.8v-7.5z"/><path fill="#E8493F" d="M195.2 0h-25v7.5h29.8v-2.7c0-2.6-2.1-4.8-4.8-4.8"/></svg>