<?xml version="1.0" encoding="utf-8"?>
<!-- Generator: Adobe Illustrator 16.0.0, SVG Export Plug-In . SVG Version: 6.00 Build 0)  -->
<!DOCTYPE svg PUBLIC "-//W3C//DTD SVG 1.1//EN" "http://www.w3.org/Graphics/SVG/1.1/DTD/svg11.dtd">
<svg version="1.1" xmlns="http://www.w3.org/2000/svg" xmlns:xlink="http://www.w3.org/1999/xlink" x="0px" y="0px" width="200px"
	 height="60px" viewBox="0 0 200 60" enable-background="new 0 0 200 60" xml:space="preserve">
<g id="Layer_1">
	<g id="keyshaft">
		<path fill="#010101" d="M14.3,35.5h6.9v-3.484L14.3,32V35.5z"/>
	</g>
	<g id="keyhandle">
		<path fill="#010101" d="M14.3,32v-7.771C14.3,20.328,11,17,7,17s-7.1,3.2-7.1,7.2c0,2,0.8,3.8,2.1,5.1c0,0,1.8,2.3,1.8,4.5
			C3.8,35.9,2,38.3,2,38.3c-1.3,1.199-2.1,3-2.1,5c0,4,3.2,7.199,7.2,7.199s7.2-3.199,7.2-7.199v-7.8V32z M7.101,45.701
			c-1.3,0-2.4-1.102-2.4-2.4c0-1,0.6-1.9,1.5-2.201C6.5,41,6.8,40.9,7.101,40.9c1.3,0,2.4,1.1,2.4,2.398
			C9.5,44.701,8.4,45.701,7.101,45.701 M9.5,24.201c0,1.3-1.1,2.4-2.4,2.4c-0.3,0-0.6-0.1-0.9-0.2c-0.9-0.4-1.5-1.2-1.5-2.2
			c0-1.3,1.1-2.4,2.4-2.4C8.4,21.8,9.5,22.9,9.5,24.201z"/>
	</g>
	<path fill="#010101" d="M21.188,7.5v24.516V35.5v19.699c0,2.6,2.1,4.801,4.8,4.801h169.2c2.602,0,4.799-2.201,4.799-4.801V7.5"/>
	<path fill="#FEC411" d="M51,0h29.8v7.5H51V0z"/>
	<path fill="#68A644" d="M80.8,0h29.8v7.5H80.8V0z"/>
	<path fill="#E97D9C" d="M110.6,0H140.4v7.5H110.6V0z"/>
	<path fill="#77C6D3" d="M140.4,0h29.8v7.5h-29.8V0z"/>
	<path fill="#FFFFFF" d="M60.5,22.1c-1,0-1.9,0.8-1.9,1.9v19.5c0,1,0.8,1.9,1.9,1.9c1,0,1.9-0.801,1.9-1.9V24
		C62.3,23,61.5,22.1,60.5,22.1 M51.9,22.1H35.5c-1,0-1.7,0.8-1.7,1.7c0,1,0.8,1.7,1.7,1.7H42v17.9c0,1,0.8,1.897,1.9,1.897
		c1,0,1.9-0.8,1.9-1.897V25.6H52c1,0,1.7-0.8,1.7-1.7C53.7,22.9,52.9,22.1,51.9,22.1 M115.5,22.5c-0.8-0.6-2-0.4-2.6,0.4l-6.603,9.2
		l-6.6-9.2c-0.6-0.8-1.8-1-2.6-0.4c-0.8,0.6-1,1.8-0.4,2.6l7.8,10.9v7.6c0,1,0.8,1.9,1.898,1.9c1,0,1.899-0.8,1.899-1.9V36l7.8-10.9
		C116.5,24.3,116.3,23.1,115.5,22.5 M90.1,22.1c-1,0-1.9,0.8-1.9,1.9v14.7L75.3,22.8c0-0.1-0.1-0.1-0.2-0.2L75,22.5
		c-0.3-0.3-0.7-0.4-1.2-0.4c-1,0-1.9,0.8-1.9,1.9v19.5c0,1,0.8,1.9,1.9,1.9c1,0,1.9-0.801,1.9-1.9V28.8l12.9,15.8
		c0.3,0.5,0.9,0.801,1.5,0.801c1,0,1.9-0.801,1.9-1.898V24C91.9,23,91.1,22.1,90.1,22.1 M153,21.8c-6.4,0-10.3,4.6-10.3,11.8
		c0,7.603,3.8,12.2,10.3,12.2c6.6,0,10.5-4.6,10.5-12.2C163.5,26.5,159.4,21.8,153,21.8 M153,42.3c-4.4,0-6.6-3.2-6.6-8.8
		c0-3,0.897-8.3,6.6-8.3c6.1,0,6.8,5.899,6.8,8.3C159.8,37.4,158.6,42.3,153,42.3 M180,22.1h-8c-1,0-1.9,0.8-1.9,1.9v19.6
		c0,1,0.801,1.9,1.9,1.9c1,0,1.9-0.8,1.9-1.9V36h6.1c3.6,0,6.5-3.1,6.5-6.9C186.5,25.2,183.6,22.1,180,22.1 M180,32.5h-6.1v-6.9h6.1
		c1.7,0,3,1.5,3,3.5C183,31,181.7,32.5,180,32.5 M134.5,33c0.9-1.1,1.5-2.6,1.5-4.3c0-3.7-2.7-6.6-6.2-6.6h-7.5
		c-0.5,0-1,0.2-1.3,0.6c-0.4,0.3-0.6,0.8-0.6,1.4v19.5c0,0.5,0.199,1,0.6,1.4c0.3,0.3,0.7,0.5,1.2,0.5h8.6c3.601,0,6.3-3,6.3-6.8
		C137.3,36.3,136.2,34.2,134.5,33 M132.5,28.7c0,1.8-1.2,3.1-2.7,3.1h-5.7v-6.2h5.7C131.4,25.6,132.5,26.9,132.5,28.7 M130.9,41.9
		h-6.7V35.3h6.7c1.6,0,2.897,1.4,2.897,3.3C133.8,40.5,132.6,41.9,130.9,41.9"/>
	<path fill="#0D89A0" d="M51,0H26c-2.6,0-4.8,2.2-4.8,4.8v2.7H51V0z"/>
	<path fill="#E8493F" d="M195.2,0h-25v7.5H200V4.8C200,2.2,197.9,0,195.2,0"/>
</g>
<g id="Layer_2">
</g>
</svg>
